<?xml version="1.0" encoding="UTF-8"?>
<svg id="Layer_2" data-name="Layer 2" xmlns="http://www.w3.org/2000/svg" width="60.82" height="79.54" xmlns:xlink="http://www.w3.org/1999/xlink" viewBox="0 0 60.82 79.54">
  <defs>
    <linearGradient id="linear-gradient" x1="7" y1="-98.17" x2="7" y2="-120.89" gradientTransform="translate(22.41 143.13)" gradientUnits="userSpaceOnUse">
      <stop offset="1" stop-color="#5de5dd"/>
      <stop offset="1" stop-color="#b58ecc"/>
    </linearGradient>
    <linearGradient id="linear-gradient-2" x1="30.41" y1="79.54" x2="30.41" y2="0" gradientUnits="userSpaceOnUse">
      <stop offset="0" stop-color="#b58ecc"/>
      <stop offset="1" stop-color="#5de5dd"/>
    </linearGradient>
  </defs>
  <g id="Layer_1-2" data-name="Layer 1">
    <g>
      <rect x="10.84" y="22.24" width="37.15" height="22.72" transform="translate(58.83 67.21) rotate(180)" style="fill: url(#linear-gradient);"/>
      <path d="M31.91,79c-.87,.72-2.13,.72-2.99,0C9.71,63,0,46.81,0,30.41S13.62,0,30.41,0s30.41,13.62,30.41,30.41-9.71,32.58-28.91,48.58h0Zm6.21-50.44l4.19,4.19-4.19,4.19c-.91,.91-.91,2.4,0,3.31,.91,.91,2.4,.91,3.31,0l5.85-5.85c.91-.91,.91-2.39,0-3.31l-5.85-5.85c-.91-.91-2.39-.91-3.31,0-.91,.91-.91,2.39,0,3.31h0Zm-15.41,8.39l-4.19-4.19,4.19-4.19c.91-.91,.91-2.39,0-3.31-.91-.91-2.4-.91-3.31,0l-5.85,5.85c-.91,.91-.91,2.39,0,3.31l5.85,5.85c.91,.91,2.39,.91,3.31,0,.91-.91,.91-2.39,0-3.31h0Zm7.87-10.91l-4.68,11.7c-.48,1.2,.1,2.56,1.3,3.04,1.2,.48,2.56-.1,3.04-1.3l4.68-11.7c.48-1.2-.1-2.56-1.3-3.04-1.2-.48-2.56,.1-3.04,1.3h0Z" style="fill: url(#linear-gradient-2);"/>
    </g>
  </g>
</svg>